<svg id="Layer_1" data-name="Layer 1" xmlns="http://www.w3.org/2000/svg" viewBox="0 0 3138.29 1665.28"><defs><style>.cls-1{fill:#ffa305;}</style></defs><path class="cls-1" d="M712.12,553c-34.31-74.44-95.8-100.33-184.49-100.33H499.81l-218.47,2.92h0l9,573.28h0l-9,194.73h140c16.32-5.1,41.25-14.84,55.25-25.57,29-22.21,54.08-53.79,75-94.84-8.42,52.45-48.62,92.57-76.43,120.41h43.43c38.83,0,73.12-6.47,103.56-18.78,68-31.07,102.28-87.37,102.28-169V624.14C724.43,603.44,720.52,579.48,712.12,553ZM563.9,1015.12c0,33-13.62,49.18-40.79,49.18H418.79L413,578.84l110.15,1.95c27.17,0,40.79,16.18,40.79,49.19Z"/><path d="M413,578.84c-25.41-71.35-65.44-102-122.57-123.19a238.77,238.77,0,0,0-111.75-12.74C84.78,454.55,0,522.54,0,639.68v578.68l5.16,5.83H149.51l5.83-5.83V1046.2l-58.25-15.54H262.81v187.7l5.8,5.83,152.69-.64h0l.08-580.63C421.38,616.39,418.79,595,413,578.84Zm-150.15,290H155.34V657.15c0-44,18.13-65.37,55-63.41a93.52,93.52,0,0,1,23.32,4.51c-3.91-15.54-12.3-31.72-24.61-47.9-12.94-16.18-25.89-33.64-39.47-51.78,33,28.49,71.84,56.33,87.38,117.82,3.87,6.47,5.83,14.23,5.83,23.94Z"/><path d="M891.43,754.54h38.75q22.56,0,38.46,17.15t15.9,41.46V975.91H941.46v-82L880.15,912v63.92H837.06V813.15q0-24.31,15.91-41.46T891.43,754.54ZM930.18,801H891.43a10.51,10.51,0,0,0-7.95,3.57,12.2,12.2,0,0,0-3.33,8.58v51.13l61.31-17.77V813.15a12.25,12.25,0,0,0-3.33-8.58A10.54,10.54,0,0,0,930.18,801Z"/><path d="M1011.44,754.54h66.8q22.54,0,38.46,17.15t15.9,41.46v24.32a50.34,50.34,0,0,1-.58,8.74,55.54,55.54,0,0,1,22,21.2,59.63,59.63,0,0,1,8.39,31.18v18.7q0,24.33-16.05,41.47T1108,975.91h-96.58Zm43.08,46.14v52.38l26.32-6.55a13,13,0,0,0,6.21-3.89c1.84-2,2.75-3.48,2.75-4.52v-25a12.42,12.42,0,0,0-3.47-8.73,10.73,10.73,0,0,0-8.09-3.74Zm0,100.09v30.55H1108a10.26,10.26,0,0,0,8-3.74,12.71,12.71,0,0,0,3.33-8.73V898.59a12.8,12.8,0,0,0-2.75-8,10.42,10.42,0,0,0-6.79-4.2Z"/><path d="M1188.12,754.54h92.82q22.56,0,38.46,17.15t15.91,41.15V917.92q0,24-15.91,41t-38.46,17h-92.82Zm42.8,46.46V929.77h50a10.93,10.93,0,0,0,8.1-3.59,11.56,11.56,0,0,0,3.47-8.26V812.84a11.58,11.58,0,0,0-3.47-8.27,11,11,0,0,0-8.1-3.57Z"/><path d="M1420.32,754.54h38.75q22.56,0,38.46,17.15t15.91,41.46V975.91h-43.09v-82L1409,912v63.92H1366V813.15q0-24.31,15.9-41.46T1420.32,754.54ZM1459.07,801h-38.75a10.52,10.52,0,0,0-8,3.57,12.2,12.2,0,0,0-3.33,8.58v51.13l61.31-17.77V813.15a12.2,12.2,0,0,0-3.33-8.58A10.52,10.52,0,0,0,1459.07,801Z"/><path d="M1586.6,754.54V917.61a11.87,11.87,0,0,0,3.47,8.57,10.93,10.93,0,0,0,8.1,3.59h71.13l.29,46.14h-71.42q-22.28,0-38.32-17.15t-16-41.15V754.54Z"/><path d="M1738.12,754.54V917.61a11.91,11.91,0,0,0,3.47,8.57,10.93,10.93,0,0,0,8.1,3.59h71.14l.28,46.14h-71.42q-22.28,0-38.32-17.15t-16-41.15V754.54Z"/><path d="M1901.21,754.54H1940q22.56,0,38.46,17.15t15.91,41.46V975.91h-43.09v-82L1889.93,912v63.92h-43.08V813.15q0-24.31,15.9-41.46T1901.21,754.54ZM1940,801h-38.75a10.52,10.52,0,0,0-8,3.57,12.2,12.2,0,0,0-3.33,8.58v51.13l61.31-17.77V813.15a12.2,12.2,0,0,0-3.33-8.58A10.54,10.54,0,0,0,1940,801Z"/><path d="M2171.88,975.91h-42.8v-82L2067.49,912v63.92h-42.8V754.54h42.8V864.28l61.59-17.77v-92h42.8Z"/><path class="cls-1" d="M2238,754.54h113.65q27.61,0,47.09,17.15t19.48,41.15V917.92q0,24-19.48,41t-47.09,17H2238ZM2290.37,801V929.77h61.24a14.91,14.91,0,0,0,9.92-3.59q4.24-3.58,4.24-8.26V812.84q0-4.68-4.24-8.27a15,15,0,0,0-9.92-3.57Z"/><path class="cls-1" d="M2635.91,975.91h-52.4v-82L2508.1,912v63.92h-52.41V754.54h52.41V864.28l75.41-17.77v-92h52.4Z"/><path class="cls-1" d="M2827.09,800.37H2740A14.72,14.72,0,0,0,2729.9,804a11.31,11.31,0,0,0-4.07,8.88v47.39L2803,842.15v47.7l-77.18,17.78v9.66a10.89,10.89,0,0,0,4.25,8.58,14.9,14.9,0,0,0,9.91,3.58h87.45v46.46H2740q-27.61,0-47.09-17.15t-19.47-41.47V812.84q0-24,19.3-41.15T2740,754.54h87.1Z"/><path class="cls-1" d="M2917.72,975.91h-52.4V754.54h52.4Z"/><path class="cls-1" d="M2954.18,754.54h117.9q27.27,0,46.74,17.15t19.47,41.46v20.9a51.77,51.77,0,0,1-10.27,31,63.29,63.29,0,0,1-27.26,21.37L3128,975.91h-54.17l-23.37-77-44.25,10.28v66.73h-52.05ZM3006.23,801v60.17l72.57-16.53c4.73-2.69,7.09-6.23,7.09-10.59v-20.9a11.08,11.08,0,0,0-4.08-8.58,14.31,14.31,0,0,0-9.73-3.57Z"/></svg>