<svg id="Layer_1" data-name="Layer 1" xmlns="http://www.w3.org/2000/svg" viewBox="0 0 2030.4 1031.04"><defs><style>.cls-1{fill:#ffa305;}</style></defs><path class="cls-1" d="M1194.65,372.08c-17.6-38.17-49.13-51.45-94.62-51.45h-14.26l-112,1.49h0l4.64,294h0L973.72,716h71.78c8.37-2.62,21.16-7.61,28.34-13.12,14.85-11.39,27.73-27.58,38.48-48.64-4.32,26.9-24.93,47.48-39.2,61.76h22.28c19.91,0,37.5-3.32,53.11-9.63,34.85-15.94,52.45-44.81,52.45-86.65V408.59C1201,398,1199,385.69,1194.65,372.08Zm-76,237c0,16.93-7,25.23-20.92,25.23h-53.5l-3-249,56.49,1c13.94,0,20.92,8.3,20.92,25.22Z"/><path d="M1041.22,385.36c-13-36.59-33.56-52.31-62.85-63.18a122.42,122.42,0,0,0-57.32-6.53c-48.13,6-91.61,40.83-91.61,100.91V713.34l2.65,3h74l3-3V625l-29.88-8h85v96.27l3,3,78.3-.33h0l0-297.78C1045.55,404.62,1044.21,393.66,1041.22,385.36Zm-77,148.71H909.11V425.52c0-22.56,9.3-33.52,28.21-32.52a47.77,47.77,0,0,1,12,2.32c-2-8-6.31-16.27-12.62-24.57-6.64-8.3-13.27-17.26-20.24-26.56,16.92,14.61,36.84,28.89,44.81,60.43a23.19,23.19,0,0,1,3,12.27Z"/></svg>